<mxfile host="app.diagrams.net" agent="Mozilla/5.0 (Macintosh; Intel Mac OS X 10_15_7) AppleWebKit/605.1.15 (KHTML, like Gecko) Version/18.3.1 Safari/605.1.15" version="26.1.1">
  <diagram id="C5RBs43oDa-KdzZeNtuy" name="Page-1">
    <mxGraphModel dx="2385" dy="1818" grid="1" gridSize="10" guides="1" tooltips="1" connect="1" arrows="1" fold="1" page="1" pageScale="1" pageWidth="827" pageHeight="1169" math="0" shadow="0">
      <root>
        <mxCell id="WIyWlLk6GJQsqaUBKTNV-0" />
        <mxCell id="WIyWlLk6GJQsqaUBKTNV-1" parent="WIyWlLk6GJQsqaUBKTNV-0" />
        <mxCell id="SX5K8bRdwKQjRIf3H68F-2" style="edgeStyle=orthogonalEdgeStyle;rounded=0;orthogonalLoop=1;jettySize=auto;html=1;exitX=0.5;exitY=1;exitDx=0;exitDy=0;" edge="1" parent="WIyWlLk6GJQsqaUBKTNV-1" source="SX5K8bRdwKQjRIf3H68F-0" target="SX5K8bRdwKQjRIf3H68F-1">
          <mxGeometry relative="1" as="geometry" />
        </mxCell>
        <mxCell id="SX5K8bRdwKQjRIf3H68F-0" value="Начало" style="ellipse;whiteSpace=wrap;html=1;" vertex="1" parent="WIyWlLk6GJQsqaUBKTNV-1">
          <mxGeometry x="370" y="40" width="120" height="40" as="geometry" />
        </mxCell>
        <mxCell id="SX5K8bRdwKQjRIf3H68F-4" value="" style="edgeStyle=orthogonalEdgeStyle;rounded=0;orthogonalLoop=1;jettySize=auto;html=1;exitX=0;exitY=0.5;exitDx=0;exitDy=0;" edge="1" parent="WIyWlLk6GJQsqaUBKTNV-1" source="SX5K8bRdwKQjRIf3H68F-18" target="SX5K8bRdwKQjRIf3H68F-3">
          <mxGeometry relative="1" as="geometry" />
        </mxCell>
        <mxCell id="SX5K8bRdwKQjRIf3H68F-19" value="" style="edgeStyle=orthogonalEdgeStyle;rounded=0;orthogonalLoop=1;jettySize=auto;html=1;" edge="1" parent="WIyWlLk6GJQsqaUBKTNV-1" source="SX5K8bRdwKQjRIf3H68F-1" target="SX5K8bRdwKQjRIf3H68F-18">
          <mxGeometry relative="1" as="geometry" />
        </mxCell>
        <mxCell id="SX5K8bRdwKQjRIf3H68F-36" style="edgeStyle=orthogonalEdgeStyle;rounded=0;orthogonalLoop=1;jettySize=auto;html=1;exitX=1;exitY=0.5;exitDx=0;exitDy=0;entryX=0.5;entryY=0;entryDx=0;entryDy=0;" edge="1" parent="WIyWlLk6GJQsqaUBKTNV-1" source="SX5K8bRdwKQjRIf3H68F-1" target="SX5K8bRdwKQjRIf3H68F-37">
          <mxGeometry relative="1" as="geometry">
            <mxPoint x="480" y="900" as="targetPoint" />
            <Array as="points">
              <mxPoint x="690" y="140" />
              <mxPoint x="690" y="840" />
              <mxPoint x="430" y="840" />
            </Array>
          </mxGeometry>
        </mxCell>
        <mxCell id="SX5K8bRdwKQjRIf3H68F-1" value="for i=0; i &amp;lt; users.Length; i++" style="shape=hexagon;perimeter=hexagonPerimeter2;whiteSpace=wrap;html=1;fixedSize=1;" vertex="1" parent="WIyWlLk6GJQsqaUBKTNV-1">
          <mxGeometry x="330" y="120" width="200" height="40" as="geometry" />
        </mxCell>
        <mxCell id="SX5K8bRdwKQjRIf3H68F-16" value="" style="edgeStyle=orthogonalEdgeStyle;rounded=0;orthogonalLoop=1;jettySize=auto;html=1;" edge="1" parent="WIyWlLk6GJQsqaUBKTNV-1" source="SX5K8bRdwKQjRIf3H68F-3" target="SX5K8bRdwKQjRIf3H68F-15">
          <mxGeometry relative="1" as="geometry" />
        </mxCell>
        <mxCell id="SX5K8bRdwKQjRIf3H68F-3" value="greetings = &quot;Привет, &quot; + user.Name;" style="whiteSpace=wrap;html=1;" vertex="1" parent="WIyWlLk6GJQsqaUBKTNV-1">
          <mxGeometry x="230" y="680" width="120" height="50" as="geometry" />
        </mxCell>
        <mxCell id="SX5K8bRdwKQjRIf3H68F-17" value="" style="edgeStyle=orthogonalEdgeStyle;rounded=0;orthogonalLoop=1;jettySize=auto;html=1;entryX=0;entryY=0.5;entryDx=0;entryDy=0;" edge="1" parent="WIyWlLk6GJQsqaUBKTNV-1" source="SX5K8bRdwKQjRIf3H68F-15" target="SX5K8bRdwKQjRIf3H68F-1">
          <mxGeometry relative="1" as="geometry">
            <mxPoint x="210" y="290" as="targetPoint" />
            <Array as="points">
              <mxPoint x="290" y="840" />
              <mxPoint x="190" y="840" />
              <mxPoint x="190" y="140" />
            </Array>
          </mxGeometry>
        </mxCell>
        <mxCell id="SX5K8bRdwKQjRIf3H68F-15" value="вывести&lt;div&gt;greetings&amp;nbsp;&lt;/div&gt;" style="shape=parallelogram;perimeter=parallelogramPerimeter;whiteSpace=wrap;html=1;fixedSize=1;" vertex="1" parent="WIyWlLk6GJQsqaUBKTNV-1">
          <mxGeometry x="230" y="760" width="120" height="40" as="geometry" />
        </mxCell>
        <mxCell id="SX5K8bRdwKQjRIf3H68F-34" style="edgeStyle=orthogonalEdgeStyle;rounded=0;orthogonalLoop=1;jettySize=auto;html=1;exitX=1;exitY=0.5;exitDx=0;exitDy=0;" edge="1" parent="WIyWlLk6GJQsqaUBKTNV-1" source="SX5K8bRdwKQjRIf3H68F-18" target="SX5K8bRdwKQjRIf3H68F-20">
          <mxGeometry relative="1" as="geometry" />
        </mxCell>
        <mxCell id="SX5K8bRdwKQjRIf3H68F-18" value="user.IsPremium == true" style="rhombus;whiteSpace=wrap;html=1;" vertex="1" parent="WIyWlLk6GJQsqaUBKTNV-1">
          <mxGeometry x="350" y="200" width="160" height="60" as="geometry" />
        </mxCell>
        <mxCell id="SX5K8bRdwKQjRIf3H68F-23" value="" style="edgeStyle=orthogonalEdgeStyle;rounded=0;orthogonalLoop=1;jettySize=auto;html=1;" edge="1" parent="WIyWlLk6GJQsqaUBKTNV-1" source="SX5K8bRdwKQjRIf3H68F-20" target="SX5K8bRdwKQjRIf3H68F-22">
          <mxGeometry relative="1" as="geometry" />
        </mxCell>
        <mxCell id="SX5K8bRdwKQjRIf3H68F-20" value="вывести&lt;div&gt;&quot;Посетите наш новый сайт&lt;/div&gt;&lt;div&gt;с бесплатными играми free.games.for.a.fool.com&quot;&lt;/div&gt;" style="shape=parallelogram;perimeter=parallelogramPerimeter;whiteSpace=wrap;html=1;fixedSize=1;" vertex="1" parent="WIyWlLk6GJQsqaUBKTNV-1">
          <mxGeometry x="480" y="270" width="180" height="60" as="geometry" />
        </mxCell>
        <mxCell id="SX5K8bRdwKQjRIf3H68F-28" value="" style="edgeStyle=orthogonalEdgeStyle;rounded=0;orthogonalLoop=1;jettySize=auto;html=1;" edge="1" parent="WIyWlLk6GJQsqaUBKTNV-1" source="SX5K8bRdwKQjRIf3H68F-22" target="SX5K8bRdwKQjRIf3H68F-24">
          <mxGeometry relative="1" as="geometry" />
        </mxCell>
        <mxCell id="SX5K8bRdwKQjRIf3H68F-22" value="Thread.Sleep(1000);" style="whiteSpace=wrap;html=1;" vertex="1" parent="WIyWlLk6GJQsqaUBKTNV-1">
          <mxGeometry x="510" y="350" width="120" height="20" as="geometry" />
        </mxCell>
        <mxCell id="SX5K8bRdwKQjRIf3H68F-29" value="" style="edgeStyle=orthogonalEdgeStyle;rounded=0;orthogonalLoop=1;jettySize=auto;html=1;" edge="1" parent="WIyWlLk6GJQsqaUBKTNV-1" source="SX5K8bRdwKQjRIf3H68F-24" target="SX5K8bRdwKQjRIf3H68F-25">
          <mxGeometry relative="1" as="geometry" />
        </mxCell>
        <mxCell id="SX5K8bRdwKQjRIf3H68F-24" value="вывести&lt;div&gt;&quot;Купите подписку на&amp;nbsp;&lt;/div&gt;&lt;div&gt;МыКомбо и слушайте&amp;nbsp;&lt;/div&gt;&lt;div&gt;музыку везде и всегда.&quot;&lt;/div&gt;" style="shape=parallelogram;perimeter=parallelogramPerimeter;whiteSpace=wrap;html=1;fixedSize=1;" vertex="1" parent="WIyWlLk6GJQsqaUBKTNV-1">
          <mxGeometry x="480" y="390" width="180" height="60" as="geometry" />
        </mxCell>
        <mxCell id="SX5K8bRdwKQjRIf3H68F-30" value="" style="edgeStyle=orthogonalEdgeStyle;rounded=0;orthogonalLoop=1;jettySize=auto;html=1;" edge="1" parent="WIyWlLk6GJQsqaUBKTNV-1" source="SX5K8bRdwKQjRIf3H68F-25" target="SX5K8bRdwKQjRIf3H68F-26">
          <mxGeometry relative="1" as="geometry" />
        </mxCell>
        <mxCell id="SX5K8bRdwKQjRIf3H68F-25" value="Thread.Sleep(2000);" style="whiteSpace=wrap;html=1;" vertex="1" parent="WIyWlLk6GJQsqaUBKTNV-1">
          <mxGeometry x="510" y="470" width="120" height="20" as="geometry" />
        </mxCell>
        <mxCell id="SX5K8bRdwKQjRIf3H68F-31" value="" style="edgeStyle=orthogonalEdgeStyle;rounded=0;orthogonalLoop=1;jettySize=auto;html=1;" edge="1" parent="WIyWlLk6GJQsqaUBKTNV-1" source="SX5K8bRdwKQjRIf3H68F-26" target="SX5K8bRdwKQjRIf3H68F-27">
          <mxGeometry relative="1" as="geometry" />
        </mxCell>
        <mxCell id="SX5K8bRdwKQjRIf3H68F-26" value="вывести&lt;div&gt;&quot;Оформите премиум-&lt;/div&gt;&lt;div&gt;подписку на наш сервис, чтобы не видеть рекламу.&quot;&lt;/div&gt;" style="shape=parallelogram;perimeter=parallelogramPerimeter;whiteSpace=wrap;html=1;fixedSize=1;" vertex="1" parent="WIyWlLk6GJQsqaUBKTNV-1">
          <mxGeometry x="480" y="510" width="180" height="60" as="geometry" />
        </mxCell>
        <mxCell id="SX5K8bRdwKQjRIf3H68F-35" style="edgeStyle=orthogonalEdgeStyle;rounded=0;orthogonalLoop=1;jettySize=auto;html=1;exitX=0.5;exitY=1;exitDx=0;exitDy=0;" edge="1" parent="WIyWlLk6GJQsqaUBKTNV-1" source="SX5K8bRdwKQjRIf3H68F-27">
          <mxGeometry relative="1" as="geometry">
            <mxPoint x="290" y="640" as="targetPoint" />
            <Array as="points">
              <mxPoint x="570" y="640" />
            </Array>
          </mxGeometry>
        </mxCell>
        <mxCell id="SX5K8bRdwKQjRIf3H68F-27" value="Thread.Sleep(3000);" style="whiteSpace=wrap;html=1;" vertex="1" parent="WIyWlLk6GJQsqaUBKTNV-1">
          <mxGeometry x="510" y="590" width="120" height="20" as="geometry" />
        </mxCell>
        <mxCell id="SX5K8bRdwKQjRIf3H68F-33" style="edgeStyle=orthogonalEdgeStyle;rounded=0;orthogonalLoop=1;jettySize=auto;html=1;exitX=0.5;exitY=1;exitDx=0;exitDy=0;" edge="1" parent="WIyWlLk6GJQsqaUBKTNV-1" source="SX5K8bRdwKQjRIf3H68F-27" target="SX5K8bRdwKQjRIf3H68F-27">
          <mxGeometry relative="1" as="geometry" />
        </mxCell>
        <mxCell id="SX5K8bRdwKQjRIf3H68F-37" value="Конец" style="ellipse;whiteSpace=wrap;html=1;" vertex="1" parent="WIyWlLk6GJQsqaUBKTNV-1">
          <mxGeometry x="370" y="860" width="120" height="40" as="geometry" />
        </mxCell>
      </root>
    </mxGraphModel>
  </diagram>
</mxfile>
